<svg version="1.1" xmlns="http://www.w3.org/2000/svg" viewBox="0 0 565 22" width="565" height="22">
  <!-- svg-source:excalidraw -->
  
  <defs>
    <style class="style-fonts">
      @font-face {
        font-family: "Virgil";
        src: url("https://excalidraw.com/Virgil.woff2");
      }
      @font-face {
        font-family: "Cascadia";
        src: url("https://excalidraw.com/Cascadia.woff2");
      }
    </style>
    
  </defs>
  <g transform="translate(10 10) rotate(0 272.5 1)" stroke="none"><path fill="#fae7a0" d="M 0,-6.84 Q 0,-6.84 5.75,-7.13 11.5,-7.43 17.39,-7.65 23.28,-7.86 29.81,-7.95 36.34,-8.03 46.30,-7.66 56.27,-7.28 67.40,-7.01 78.54,-6.74 90.46,-6.53 102.37,-6.33 118.37,-6.18 134.36,-6.04 149.49,-5.93 164.62,-5.82 177.96,-5.74 191.29,-5.66 203.28,-5.61 215.27,-5.55 226.12,-5.51 236.96,-5.47 247.90,-5.44 258.83,-5.41 271.82,-5.39 284.80,-5.36 296.07,-5.35 307.34,-5.33 317.30,-5.32 327.27,-5.31 335.53,-5.36 343.78,-5.41 349.88,-5.81 355.98,-6.22 361.16,-6.62 366.34,-7.02 372.28,-7.28 378.22,-7.53 384.48,-7.69 390.74,-7.85 399.15,-7.52 407.56,-7.20 416.31,-6.94 425.06,-6.67 433.09,-6.60 441.12,-6.52 449.71,-6.35 458.30,-6.17 468.64,-5.76 478.99,-5.34 487.91,-5.13 496.83,-4.92 504.64,-4.95 512.45,-4.99 519.36,-4.94 526.27,-4.88 531.11,-5.15 535.96,-5.42 540.56,-5.93 545.17,-6.44 546.52,-6.19 547.86,-5.94 549.05,-5.27 550.25,-4.61 551.16,-3.60 552.08,-2.59 552.63,-1.33 553.18,-0.08 553.30,1.27 553.42,2.63 553.09,3.96 552.77,5.29 552.04,6.44 551.31,7.60 550.25,8.46 549.19,9.32 547.92,9.80 546.64,10.28 545.27,10.32 543.90,10.37 542.60,9.98 541.29,9.58 540.17,8.79 539.06,8.00 538.26,6.90 537.45,5.79 537.04,4.49 536.63,3.18 536.66,1.82 536.69,0.45 537.16,-0.82 537.62,-2.11 538.47,-3.18 539.32,-4.25 540.47,-4.99 541.61,-5.73 542.94,-6.07 544.26,-6.41 545.62,-6.30 546.99,-6.20 548.24,-5.67 549.50,-5.14 550.52,-4.23 551.55,-3.32 552.23,-2.14 552.90,-0.95 553.17,0.38 553.44,1.72 553.26,3.07 553.08,4.43 552.48,5.65 551.88,6.88 550.92,7.85 549.96,8.83 548.74,9.44 547.52,10.05 546.17,10.25 544.81,10.44 544.82,10.44 544.82,10.44 540.19,9.74 535.57,9.04 530.62,8.50 525.68,7.97 519.03,7.40 512.38,6.84 504.52,6.70 496.67,6.56 487.66,6.53 478.66,6.49 468.48,6.33 458.30,6.17 449.71,6.35 441.12,6.52 433.09,6.60 425.06,6.67 416.31,6.94 407.56,7.20 399.15,7.52 390.74,7.85 384.48,7.69 378.22,7.53 372.28,7.28 366.34,7.02 361.16,6.62 355.98,6.22 349.88,5.81 343.78,5.41 335.53,5.36 327.27,5.31 317.30,5.32 307.34,5.33 296.07,5.35 284.80,5.36 271.82,5.39 258.83,5.41 247.90,5.44 236.96,5.47 226.12,5.51 215.27,5.55 203.28,5.61 191.29,5.66 177.96,5.74 164.62,5.82 149.49,5.93 134.36,6.04 118.37,6.18 102.37,6.33 90.46,6.53 78.54,6.74 67.40,7.01 56.27,7.28 46.30,7.66 36.34,8.03 29.81,7.95 23.28,7.86 17.39,7.65 11.5,7.43 5.75,7.13 0,6.84 -0.81,6.74 -1.63,6.64 -2.40,6.35 -3.18,6.06 -3.86,5.59 -4.53,5.12 -5.08,4.50 -5.63,3.88 -6.01,3.15 -6.40,2.42 -6.59,1.62 -6.79,0.82 -6.79,-0.00 -6.79,-0.82 -6.59,-1.62 -6.40,-2.42 -6.01,-3.15 -5.63,-3.88 -5.08,-4.50 -4.53,-5.12 -3.85,-5.59 -3.18,-6.06 -2.40,-6.35 -1.63,-6.64 -0.81,-6.74 0.00,-6.84 0.00,-6.84 L 0,-6.84 Z"></path></g></svg>