<svg version="1.1" xmlns="http://www.w3.org/2000/svg" viewBox="0 0 166 237" width="166" height="237">
  <!-- svg-source:excalidraw -->
  
  <defs>
    <style class="style-fonts">
      @font-face {
        font-family: "Virgil";
        src: url("https://excalidraw.com/Virgil.woff2");
      }
      @font-face {
        font-family: "Cascadia";
        src: url("https://excalidraw.com/Cascadia.woff2");
      }
    </style>
    
  </defs>
  <g transform="translate(10 71) rotate(0 72 -16)" stroke="none"><path fill="#fae7a0" d="M -2.28,-6.63 Q -2.28,-6.63 6.99,-9.57 16.27,-12.50 32.15,-18.80 48.03,-25.09 66.04,-32.61 84.05,-40.14 99.14,-47.01 114.22,-53.88 122.14,-57.37 130.06,-60.87 132.92,-62.52 135.79,-64.16 136.54,-64.40 137.29,-64.63 138.08,-64.68 138.87,-64.73 139.65,-64.59 140.42,-64.45 141.14,-64.12 141.86,-63.80 142.49,-63.31 143.11,-62.83 143.59,-62.21 144.08,-61.58 144.41,-60.86 144.73,-60.14 144.87,-59.37 145.02,-58.59 144.97,-57.80 144.92,-57.01 144.69,-56.26 144.45,-55.51 144.04,-54.83 143.64,-54.15 143.08,-53.60 142.52,-53.04 141.85,-52.63 141.17,-52.22 136.62,-49.09 132.07,-45.95 121.54,-38.57 111.02,-31.20 96.92,-21.99 82.83,-12.78 68.24,-3.17 53.65,6.42 43.48,13.60 33.32,20.77 28.62,24.75 23.93,28.73 23.26,29.10 22.59,29.46 21.85,29.66 21.12,29.85 20.35,29.86 19.59,29.87 18.85,29.70 18.10,29.53 17.42,29.18 16.74,28.84 16.16,28.34 15.58,27.84 15.14,27.22 14.69,26.60 14.41,25.89 14.13,25.18 14.03,24.43 13.93,23.67 14.01,22.91 14.09,22.15 14.35,21.43 14.61,20.72 15.03,20.08 15.46,19.45 16.02,18.93 16.58,18.42 29.47,11.94 42.37,5.47 52.01,1.22 61.64,-3.03 68.56,-6.29 75.47,-9.55 76.43,-9.80 77.38,-10.06 78.36,-10.00 79.35,-9.94 80.26,-9.57 81.18,-9.20 81.92,-8.55 82.67,-7.91 83.17,-7.06 83.68,-6.21 83.88,-5.25 84.09,-4.28 83.97,-3.30 83.86,-2.32 83.44,-1.43 83.02,-0.54 82.33,0.16 81.65,0.88 80.78,1.33 79.90,1.79 78.93,1.94 77.95,2.09 76.98,1.93 76.01,1.76 75.14,1.29 74.27,0.82 73.60,0.10 72.92,-0.61 72.51,-1.51 72.11,-2.41 72.01,-3.39 71.91,-4.37 72.13,-5.33 72.35,-6.29 72.86,-7.14 73.38,-7.98 74.13,-8.61 74.89,-9.24 75.81,-9.60 76.73,-9.96 77.71,-10.01 78.70,-10.05 79.65,-9.78 80.60,-9.51 81.41,-8.95 82.22,-8.39 82.81,-7.60 83.40,-6.81 83.71,-5.87 84.02,-4.94 84.01,-3.95 84.01,-2.96 83.68,-2.03 83.36,-1.10 82.76,-0.32 82.16,0.45 81.34,1.00 80.51,1.55 80.52,1.55 80.52,1.55 73.51,4.61 66.51,7.67 57.31,11.96 48.12,16.26 36.03,22.50 23.93,28.73 23.26,29.10 22.59,29.46 21.86,29.66 21.12,29.85 20.35,29.86 19.59,29.87 18.85,29.70 18.10,29.53 17.42,29.19 16.74,28.84 16.16,28.34 15.58,27.85 15.14,27.22 14.70,26.60 14.41,25.89 14.13,25.18 14.03,24.43 13.93,23.67 14.01,22.91 14.09,22.15 14.35,21.43 14.61,20.72 15.03,20.08 15.46,19.45 16.02,18.93 16.58,18.42 21.72,15.06 26.86,11.71 37.11,4.33 47.36,-3.03 61.86,-12.78 76.37,-22.52 90.15,-31.79 103.94,-41.05 114.36,-48.73 124.78,-56.40 130.28,-60.28 135.78,-64.16 136.54,-64.40 137.29,-64.63 138.08,-64.68 138.87,-64.73 139.65,-64.59 140.42,-64.45 141.14,-64.12 141.86,-63.80 142.48,-63.31 143.11,-62.83 143.59,-62.21 144.08,-61.58 144.41,-60.86 144.73,-60.15 144.87,-59.37 145.02,-58.59 144.97,-57.80 144.92,-57.02 144.69,-56.26 144.45,-55.51 144.05,-54.83 143.64,-54.16 143.08,-53.60 142.52,-53.04 141.85,-52.63 141.17,-52.22 137.92,-51.43 134.67,-50.64 126.86,-47.04 119.04,-43.44 103.87,-36.33 88.70,-29.21 70.70,-21.42 52.70,-13.63 36.61,-6.88 20.52,-0.14 11.40,3.24 2.28,6.63 1.45,6.81 0.62,6.98 -0.21,6.96 -1.06,6.93 -1.87,6.70 -2.69,6.47 -3.42,6.06 -4.16,5.64 -4.78,5.06 -5.39,4.48 -5.85,3.77 -6.31,3.06 -6.58,2.26 -6.86,1.46 -6.93,0.62 -7.01,-0.22 -6.88,-1.05 -6.75,-1.89 -6.43,-2.67 -6.10,-3.45 -5.60,-4.13 -5.10,-4.81 -4.45,-5.35 -3.80,-5.89 -3.04,-6.26 -2.28,-6.63 -2.28,-6.63 L -2.28,-6.63 Z"></path></g><g transform="translate(153 44) rotate(0 -64.5 91.5)" stroke="none"><path fill="#fae7a0" d="M 4.37,6.08 Q 4.37,6.08 -7.01,13.89 -18.40,21.69 -29.93,29.55 -41.46,37.41 -50.30,44.05 -59.15,50.70 -63.20,54.45 -67.26,58.20 -68.88,60.25 -70.51,62.30 -71.29,62.78 -72.06,63.26 -72.93,63.55 -73.80,63.83 -74.72,63.90 -75.63,63.96 -76.53,63.81 -77.44,63.66 -78.28,63.29 -79.12,62.93 -79.84,62.37 -80.57,61.82 -81.14,61.10 -81.72,60.39 -82.10,59.56 -82.49,58.73 -82.67,57.83 -82.84,56.93 -82.80,56.02 -82.76,55.10 -82.49,54.22 -82.23,53.35 -81.77,52.56 -81.31,51.77 -80.67,51.11 -80.03,50.46 -72.59,47.47 -65.16,44.47 -54.10,40.84 -43.04,37.21 -32.36,33.78 -21.68,30.34 -15.16,28.01 -8.63,25.69 -7.68,25.48 -6.74,25.27 -5.89,25.10 -5.05,24.94 -4.19,24.98 -3.33,25.02 -2.51,25.27 -1.68,25.51 -0.94,25.95 -0.20,26.38 0.40,26.98 1.02,27.58 1.47,28.31 1.92,29.04 2.19,29.86 2.45,30.68 2.52,31.54 2.58,32.39 2.43,33.24 2.29,34.09 1.94,34.88 1.60,35.66 1.08,36.35 0.56,37.03 -0.10,37.57 -0.77,38.11 -1.55,38.47 -2.33,38.83 -9.21,42.26 -16.09,45.70 -29.08,52.45 -42.07,59.21 -55.88,66.88 -69.68,74.56 -80.05,81.17 -90.42,87.78 -95.26,91.29 -100.10,94.79 -101.76,96.74 -103.42,98.69 -104.20,99.06 -104.99,99.43 -105.84,99.60 -106.70,99.78 -107.56,99.74 -108.43,99.70 -109.27,99.46 -110.10,99.22 -110.86,98.78 -111.61,98.34 -112.24,97.74 -112.86,97.14 -113.33,96.40 -113.79,95.66 -114.06,94.84 -114.34,94.01 -114.41,93.14 -114.47,92.28 -114.33,91.42 -114.19,90.56 -113.85,89.76 -113.51,88.96 -112.98,88.27 -112.46,87.57 -111.78,87.02 -111.11,86.47 -104.76,86.00 -98.42,85.52 -89.55,82.83 -80.68,80.14 -69.11,75.92 -57.55,71.69 -47.14,68.71 -36.74,65.72 -32.04,63.75 -27.35,61.78 -25.65,60.82 -23.95,59.86 -23.07,59.69 -22.18,59.52 -21.28,59.56 -20.38,59.61 -19.51,59.86 -18.65,60.12 -17.87,60.58 -17.09,61.04 -16.44,61.67 -15.80,62.30 -15.32,63.07 -14.84,63.84 -14.56,64.69 -14.29,65.55 -14.22,66.45 -14.15,67.36 -14.31,68.25 -14.46,69.14 -14.82,69.96 -15.18,70.79 -15.73,71.51 -16.28,72.23 -16.98,72.79 -17.69,73.36 -18.51,73.74 -19.33,74.12 -28.89,80.14 -38.46,86.16 -47.89,92.42 -57.32,98.69 -67.08,105.85 -76.83,113.02 -81.91,117.42 -86.98,121.81 -83.42,118.10 -79.86,114.38 -67.61,111.38 -55.37,108.38 -41.34,104.85 -27.31,101.32 -20.55,99.30 -13.78,97.27 -12.98,97.16 -12.18,97.04 -11.37,97.13 -10.57,97.21 -9.80,97.48 -9.04,97.75 -8.37,98.20 -7.69,98.65 -7.14,99.24 -6.59,99.84 -6.20,100.55 -5.81,101.26 -5.60,102.04 -5.39,102.83 -5.38,103.64 -5.36,104.45 -5.54,105.24 -5.72,106.03 -6.08,106.75 -6.44,107.48 -6.97,108.09 -7.50,108.71 -8.15,109.18 -8.81,109.66 -9.56,109.96 -10.31,110.26 -18.76,117.86 -27.20,125.47 -43.11,133.23 -59.03,140.99 -76.20,151.01 -93.38,161.02 -103.23,167.50 -113.09,173.97 -117.32,177.41 -121.55,180.84 -122.72,182.42 -123.90,184.00 -124.67,184.41 -125.44,184.81 -126.29,185.02 -127.14,185.23 -128.01,185.23 -128.88,185.23 -129.73,185.02 -130.58,184.81 -131.35,184.41 -132.13,184.00 -132.78,183.42 -133.43,182.84 -133.93,182.12 -134.42,181.40 -134.73,180.59 -135.04,179.77 -135.15,178.90 -135.25,178.04 -135.15,177.17 -135.04,176.30 -134.73,175.49 -134.42,174.67 -133.93,173.95 -133.43,173.23 -132.78,172.66 -132.12,172.08 -126.05,171.05 -119.97,170.03 -112.70,167.51 -105.42,165.00 -99.76,162.64 -94.09,160.28 -92.59,159.11 -91.09,157.94 -90.16,157.72 -89.24,157.50 -88.29,157.50 -87.33,157.51 -86.41,157.75 -85.49,157.98 -84.65,158.43 -83.81,158.88 -83.11,159.51 -82.40,160.15 -81.86,160.94 -81.33,161.72 -81.00,162.62 -80.67,163.51 -80.56,164.45 -80.45,165.40 -80.57,166.34 -80.70,167.28 -81.04,168.17 -81.38,169.06 -81.93,169.84 -82.48,170.62 -83.19,171.24 -83.91,171.87 -84.76,172.30 -85.60,172.74 -90.11,174.43 -94.61,176.11 -99.71,178.95 -104.80,181.80 -109.63,186.13 -114.45,190.47 -115.79,191.16 -117.13,191.85 -118.62,192.07 -120.10,192.30 -121.59,192.04 -123.07,191.78 -124.39,191.05 -125.71,190.33 -126.73,189.23 -127.76,188.12 -128.37,186.75 -128.99,185.38 -129.13,183.88 -129.28,182.38 -128.94,180.92 -128.60,179.45 -127.80,178.17 -127.01,176.89 -125.86,175.93 -124.70,174.97 -123.29,174.43 -121.89,173.89 -120.38,173.82 -118.88,173.76 -117.43,174.18 -115.99,174.60 -114.75,175.46 -113.52,176.32 -112.62,177.53 -111.72,178.74 -111.26,180.17 -110.80,181.60 -110.82,183.10 -110.83,184.61 -111.33,186.03 -111.83,187.45 -112.75,188.64 -113.68,189.82 -114.93,190.65 -116.19,191.48 -117.64,191.87 -119.10,192.25 -120.60,192.16 -122.10,192.06 -123.49,191.48 -124.89,190.91 -126.02,189.92 -127.16,188.93 -127.92,187.63 -128.68,186.33 -128.98,184.86 -129.29,183.39 -129.11,181.89 -128.93,180.40 -128.28,179.04 -127.63,177.68 -126.58,176.60 -125.54,175.52 -125.54,175.52 -125.54,175.52 -122.97,173.95 -120.40,172.37 -116.44,169.86 -112.48,167.35 -106.28,164.21 -100.07,161.07 -95.58,159.50 -91.09,157.94 -90.16,157.72 -89.24,157.50 -88.29,157.50 -87.33,157.51 -86.41,157.75 -85.49,157.98 -84.65,158.43 -83.81,158.88 -83.11,159.51 -82.40,160.15 -81.86,160.94 -81.33,161.72 -81.00,162.61 -80.67,163.51 -80.56,164.45 -80.45,165.40 -80.57,166.34 -80.70,167.28 -81.04,168.17 -81.38,169.06 -81.93,169.84 -82.48,170.62 -83.19,171.24 -83.91,171.87 -84.75,172.30 -85.60,172.74 -87.28,173.39 -88.95,174.04 -94.82,175.95 -100.69,177.87 -112.29,180.93 -123.90,184.00 -124.67,184.41 -125.44,184.81 -126.29,185.02 -127.14,185.23 -128.01,185.23 -128.88,185.23 -129.73,185.02 -130.58,184.81 -131.35,184.41 -132.13,184.00 -132.78,183.42 -133.43,182.84 -133.93,182.12 -134.42,181.40 -134.73,180.59 -135.04,179.77 -135.15,178.91 -135.25,178.04 -135.15,177.17 -135.04,176.31 -134.73,175.49 -134.42,174.67 -133.93,173.95 -133.43,173.24 -132.78,172.66 -132.12,172.08 -130.62,171.01 -129.11,169.95 -124.31,167.15 -119.52,164.36 -109.50,157.54 -99.47,150.72 -82.05,140.26 -64.63,129.80 -49.21,121.87 -33.78,113.95 -23.78,105.61 -13.79,97.27 -12.98,97.16 -12.18,97.04 -11.37,97.13 -10.57,97.21 -9.80,97.48 -9.04,97.75 -8.37,98.20 -7.69,98.65 -7.14,99.24 -6.59,99.84 -6.20,100.55 -5.81,101.26 -5.60,102.04 -5.39,102.83 -5.38,103.64 -5.36,104.45 -5.54,105.24 -5.72,106.03 -6.08,106.75 -6.44,107.48 -6.97,108.09 -7.49,108.71 -8.15,109.18 -8.81,109.66 -9.56,109.96 -10.31,110.26 -17.16,111.98 -24.00,113.70 -37.91,117.64 -51.83,121.58 -64.76,125.33 -77.69,129.07 -86.50,129.95 -95.32,130.83 -98.64,125.71 -101.96,120.59 -98.65,116.04 -95.35,111.50 -89.83,107.32 -84.31,103.14 -74.55,95.53 -64.79,87.93 -55.37,81.09 -45.94,74.25 -38.92,69.45 -31.90,64.65 -27.93,62.26 -23.95,59.86 -23.07,59.69 -22.18,59.52 -21.28,59.56 -20.38,59.61 -19.51,59.86 -18.65,60.12 -17.87,60.58 -17.09,61.04 -16.44,61.67 -15.80,62.30 -15.32,63.07 -14.84,63.83 -14.56,64.69 -14.29,65.55 -14.22,66.45 -14.15,67.35 -14.31,68.25 -14.46,69.14 -14.82,69.96 -15.18,70.79 -15.73,71.51 -16.28,72.23 -16.98,72.79 -17.69,73.36 -18.51,73.74 -19.33,74.12 -21.21,74.51 -23.09,74.90 -28.16,76.10 -33.24,77.31 -43.12,80.43 -53.00,83.56 -64.81,88.30 -76.63,93.05 -90.02,95.87 -103.42,98.69 -104.20,99.06 -104.99,99.43 -105.84,99.60 -106.69,99.78 -107.56,99.74 -108.43,99.70 -109.27,99.46 -110.10,99.22 -110.86,98.78 -111.61,98.34 -112.24,97.74 -112.86,97.14 -113.33,96.40 -113.79,95.66 -114.06,94.84 -114.34,94.01 -114.41,93.15 -114.47,92.28 -114.33,91.42 -114.19,90.56 -113.85,89.76 -113.51,88.96 -112.98,88.27 -112.46,87.57 -111.78,87.02 -111.11,86.47 -109.07,85.16 -107.03,83.84 -101.82,81.02 -96.61,78.20 -86.04,71.27 -75.46,64.34 -61.64,56.39 -47.82,48.44 -35.04,41.44 -22.26,34.44 -14.50,29.85 -6.74,25.27 -5.89,25.10 -5.05,24.94 -4.19,24.98 -3.33,25.02 -2.51,25.27 -1.68,25.51 -0.94,25.95 -0.20,26.38 0.40,26.98 1.02,27.58 1.47,28.31 1.92,29.04 2.19,29.86 2.45,30.68 2.52,31.54 2.58,32.39 2.43,33.24 2.29,34.09 1.94,34.88 1.60,35.66 1.08,36.35 0.56,37.03 -0.10,37.57 -0.77,38.10 -1.55,38.47 -2.33,38.83 -3.47,38.69 -4.60,38.55 -11.09,40.45 -17.58,42.35 -28.06,46.15 -38.53,49.95 -48.84,53.87 -59.14,57.79 -64.83,60.04 -70.51,62.30 -71.29,62.78 -72.06,63.26 -72.93,63.55 -73.80,63.83 -74.72,63.90 -75.63,63.96 -76.53,63.81 -77.44,63.66 -78.28,63.29 -79.11,62.93 -79.84,62.37 -80.57,61.82 -81.14,61.10 -81.72,60.39 -82.10,59.56 -82.49,58.73 -82.67,57.83 -82.84,56.93 -82.80,56.02 -82.76,55.10 -82.49,54.23 -82.23,53.35 -81.77,52.56 -81.31,51.77 -80.67,51.11 -80.03,50.46 -77.96,48.96 -75.90,47.47 -71.27,44.24 -66.64,41.01 -57.77,33.94 -48.89,26.87 -37.67,18.68 -26.44,10.50 -15.40,2.20 -4.37,-6.08 -3.57,-6.52 -2.78,-6.95 -1.91,-7.19 -1.04,-7.42 -0.13,-7.44 0.76,-7.45 1.64,-7.25 2.52,-7.05 3.33,-6.65 4.14,-6.24 4.83,-5.66 5.51,-5.07 6.04,-4.33 6.57,-3.60 6.90,-2.76 7.24,-1.92 7.36,-1.03 7.49,-0.13 7.40,0.76 7.30,1.65 7.00,2.50 6.70,3.36 6.20,4.11 5.70,4.86 5.03,5.47 4.37,6.08 4.37,6.08 L 4.37,6.08 Z"></path></g></svg>