<svg version="1.1" xmlns="http://www.w3.org/2000/svg" viewBox="0 0 220 94.55092837899218" width="220" height="94.55092837899218">
  <!-- svg-source:excalidraw -->
  
  <defs>
    <style class="style-fonts">
      @font-face {
        font-family: "Virgil";
        src: url("https://excalidraw.com/Virgil.woff2");
      }
      @font-face {
        font-family: "Cascadia";
        src: url("https://excalidraw.com/Cascadia.woff2");
      }
    </style>
    
  </defs>
  <g transform="translate(10 10) rotate(0 100 29)" stroke="none"><path fill="#fae7a0" d="M 5.02,-5.32 Q 5.02,-5.32 12.38,2.01 19.75,9.35 30.23,15.86 40.72,22.36 53.60,27.36 66.48,32.36 81.67,36.32 96.87,40.28 113.45,43.18 130.03,46.08 145.32,47.78 160.61,49.48 170.90,50.38 181.19,51.27 185.99,51.14 190.79,51.02 195.57,50.74 200.35,50.46 201.54,50.71 202.74,50.96 203.79,51.58 204.84,52.21 205.64,53.13 206.43,54.06 206.89,55.19 207.35,56.32 207.43,57.54 207.50,58.76 207.19,59.94 206.87,61.11 206.19,62.13 205.51,63.15 204.55,63.89 203.58,64.64 202.42,65.04 201.27,65.43 200.05,65.44 198.83,65.45 197.67,65.07 196.51,64.69 195.53,63.96 194.55,63.22 193.86,62.22 193.17,61.21 192.83,60.04 192.50,58.86 192.55,57.64 192.61,56.42 193.06,55.29 193.50,54.15 194.28,53.21 195.07,52.28 196.11,51.64 197.15,51.00 198.34,50.73 199.53,50.46 200.75,50.58 201.96,50.71 203.07,51.21 204.19,51.72 205.08,52.55 205.97,53.38 206.55,54.46 207.13,55.53 207.34,56.74 207.54,57.94 207.35,59.15 207.16,60.35 206.60,61.44 206.04,62.52 205.16,63.37 204.27,64.21 203.17,64.73 202.06,65.25 200.85,65.39 199.64,65.53 199.64,65.53 199.64,65.53 194.72,64.71 189.81,63.89 185.04,63.04 180.28,62.18 169.85,61.36 159.42,60.54 143.77,58.91 128.12,57.27 111.06,54.43 93.99,51.59 78.09,47.63 62.19,43.68 48.18,38.46 34.17,33.25 22.34,26.24 10.51,19.22 2.74,12.27 -5.02,5.32 -5.59,4.64 -6.15,3.96 -6.54,3.17 -6.92,2.37 -7.10,1.51 -7.29,0.65 -7.26,-0.23 -7.23,-1.11 -6.99,-1.96 -6.76,-2.81 -6.32,-3.58 -5.89,-4.35 -5.28,-4.99 -4.67,-5.63 -3.93,-6.11 -3.19,-6.58 -2.35,-6.87 -1.52,-7.16 -0.64,-7.24 0.23,-7.31 1.10,-7.18 1.97,-7.04 2.79,-6.71 3.60,-6.37 4.31,-5.84 5.02,-5.32 5.02,-5.32 L 5.02,-5.32 Z"></path></g><g transform="translate(180.44907162100776 43.484122778870585) rotate(0 14.5 11)" stroke="none"><path fill="#fae7a0" d="M 3.50,-2.75 Q 3.50,-2.75 6.09,0.91 8.67,4.59 11.22,6.79 13.76,8.99 16.48,10.82 19.20,12.65 21.49,13.87 23.79,15.10 27.36,16.43 30.93,17.77 31.56,18.19 32.18,18.61 32.64,19.20 33.10,19.80 33.34,20.51 33.58,21.23 33.59,21.98 33.59,22.73 33.35,23.44 33.11,24.16 32.66,24.76 32.21,25.36 31.58,25.78 30.96,26.21 30.24,26.41 29.51,26.62 28.76,26.58 28.01,26.54 27.31,26.27 26.61,25.99 26.04,25.50 25.46,25.02 25.07,24.38 24.68,23.73 24.52,23.00 24.35,22.26 24.43,21.51 24.51,20.77 24.82,20.08 25.14,19.40 25.65,18.85 26.17,18.30 26.83,17.95 27.49,17.59 28.24,17.47 28.98,17.34 29.72,17.46 30.46,17.58 31.13,17.93 31.80,18.28 32.32,18.83 32.84,19.37 33.15,20.05 33.47,20.74 33.56,21.48 33.64,22.23 33.48,22.97 33.32,23.70 32.94,24.35 32.55,24.99 31.98,25.48 31.41,25.97 30.71,26.25 30.01,26.53 29.26,26.58 28.51,26.62 27.78,26.42 27.06,26.22 27.06,26.22 27.06,26.22 25.56,25.39 24.06,24.56 21.81,23.37 19.57,22.18 17.19,20.63 14.82,19.07 11.78,16.97 8.74,14.87 5.59,12.20 2.44,9.54 -0.53,6.14 -3.50,2.75 -3.78,2.29 -4.06,1.83 -4.22,1.32 -4.38,0.81 -4.42,0.27 -4.45,-0.26 -4.36,-0.79 -4.26,-1.32 -4.04,-1.81 -3.82,-2.30 -3.49,-2.72 -3.16,-3.15 -2.73,-3.48 -2.31,-3.81 -1.82,-4.03 -1.33,-4.25 -0.80,-4.35 -0.27,-4.45 0.26,-4.42 0.79,-4.39 1.31,-4.23 1.82,-4.07 2.28,-3.79 2.74,-3.51 3.12,-3.13 3.50,-2.75 3.50,-2.75 L 3.50,-2.75 Z"></path></g><g transform="translate(211.1051534735882 70.55092837899218) rotate(0 -17.5 7)" stroke="none"><path fill="#fae7a0" d="M -0.34,4.75 Q -0.34,4.75 -3.91,5.81 -7.48,6.87 -10.65,7.85 -13.82,8.84 -16.29,9.61 -18.76,10.37 -22.06,12.02 -25.37,13.66 -26.81,15.13 -28.24,16.59 -28.78,17.28 -29.32,17.97 -30.05,18.45 -30.78,18.94 -31.63,19.16 -32.48,19.38 -33.35,19.32 -34.22,19.27 -35.03,18.93 -35.84,18.60 -36.50,18.02 -37.16,17.45 -37.61,16.69 -38.05,15.94 -38.23,15.08 -38.40,14.22 -38.30,13.35 -38.19,12.48 -37.81,11.69 -37.44,10.90 -36.83,10.27 -36.22,9.65 -35.44,9.25 -34.66,8.84 -33.79,8.71 -32.93,8.58 -32.07,8.74 -31.20,8.89 -30.43,9.31 -29.67,9.73 -29.07,10.37 -28.48,11.01 -28.12,11.81 -27.76,12.61 -27.68,13.48 -27.59,14.36 -27.79,15.21 -27.99,16.06 -28.45,16.81 -28.91,17.55 -29.59,18.11 -30.26,18.67 -31.08,18.98 -31.90,19.30 -32.77,19.33 -33.65,19.37 -34.49,19.12 -35.33,18.88 -36.05,18.38 -36.77,17.88 -37.29,17.17 -37.81,16.47 -38.08,15.64 -38.35,14.80 -38.34,13.93 -38.32,13.05 -38.03,12.23 -37.74,11.40 -37.75,11.40 -37.75,11.40 -35.18,8.56 -32.61,5.73 -29.12,4.25 -25.64,2.77 -23.49,1.99 -21.33,1.21 -19.00,0.63 -16.66,0.06 -13.61,-0.96 -10.56,-1.99 -7.10,-3.37 -3.65,-4.75 -3.05,-4.88 -2.46,-5.00 -1.85,-4.99 -1.25,-4.97 -0.66,-4.81 -0.08,-4.65 0.44,-4.35 0.97,-4.05 1.41,-3.64 1.85,-3.22 2.18,-2.72 2.51,-2.21 2.71,-1.63 2.91,-1.06 2.97,-0.46 3.02,0.14 2.93,0.74 2.84,1.34 2.61,1.90 2.38,2.46 2.02,2.95 1.67,3.44 1.20,3.83 0.74,4.21 0.19,4.48 -0.34,4.75 -0.34,4.75 L -0.34,4.75 Z"></path></g></svg>