<svg version="1.1" xmlns="http://www.w3.org/2000/svg" viewBox="0 0 492 254" width="492" height="254">
  <!-- svg-source:excalidraw -->
  
  <defs>
    <style class="style-fonts">
      @font-face {
        font-family: "Virgil";
        src: url("https://excalidraw.com/Virgil.woff2");
      }
      @font-face {
        font-family: "Cascadia";
        src: url("https://excalidraw.com/Cascadia.woff2");
      }
    </style>
    
  </defs>
  <g transform="translate(10 244) rotate(0 236 -117)" stroke="none"><path fill="#fae7a0" d="M -3.42,-6.12 Q -3.42,-6.12 3.84,-9.99 11.11,-13.87 25.15,-21.72 39.20,-29.57 61.72,-40.98 84.24,-52.39 111.71,-64.99 139.18,-77.58 168.20,-89.26 197.21,-100.94 223.09,-110.49 248.96,-120.04 266.64,-125.83 284.32,-131.62 291.93,-133.71 299.55,-135.80 302.32,-136.74 305.10,-137.68 305.90,-137.78 306.69,-137.88 307.49,-137.79 308.28,-137.69 309.03,-137.41 309.78,-137.14 310.44,-136.68 311.11,-136.23 311.64,-135.64 312.17,-135.04 312.55,-134.33 312.93,-133.63 313.12,-132.85 313.32,-132.07 313.32,-131.27 313.33,-130.47 313.14,-129.69 312.95,-128.91 312.59,-128.20 312.22,-127.49 311.69,-126.89 311.16,-126.29 310.51,-125.83 309.85,-125.37 309.10,-125.08 308.36,-124.79 310.24,-120.45 312.13,-116.11 318.32,-117.13 324.52,-118.15 339.95,-125.38 355.39,-132.62 376.47,-147.25 397.55,-161.89 412.46,-175.95 427.37,-190.01 436.24,-200.70 445.10,-211.39 450.05,-217.96 454.99,-224.53 457.76,-228.44 460.52,-232.35 463.52,-236.07 466.51,-239.80 467.58,-240.52 468.65,-241.24 469.89,-241.59 471.14,-241.93 472.43,-241.86 473.72,-241.79 474.92,-241.31 476.12,-240.83 477.10,-240.00 478.08,-239.16 478.75,-238.05 479.41,-236.94 479.69,-235.68 479.97,-234.42 479.83,-233.14 479.69,-231.85 479.14,-230.68 478.60,-229.51 477.71,-228.57 476.82,-227.63 475.68,-227.03 474.54,-226.43 473.26,-226.22 471.99,-226.01 470.71,-226.22 469.44,-226.43 468.30,-227.04 467.16,-227.64 466.27,-228.58 465.38,-229.52 464.84,-230.69 464.30,-231.87 464.16,-233.15 464.02,-234.43 464.30,-235.70 464.58,-236.96 465.25,-238.06 465.91,-239.17 466.90,-240.01 467.89,-240.84 469.09,-241.32 470.29,-241.79 471.58,-241.86 472.87,-241.93 474.11,-241.58 475.35,-241.24 476.42,-240.51 477.49,-239.79 478.27,-238.76 479.05,-237.73 479.46,-236.50 479.88,-235.28 479.87,-233.99 479.87,-232.70 479.46,-231.47 479.05,-230.25 478.26,-229.22 477.48,-228.19 477.48,-228.19 477.48,-228.19 474.06,-225.86 470.65,-223.52 467.45,-220.58 464.25,-217.64 459.22,-210.80 454.18,-203.96 444.99,-192.58 435.79,-181.20 420.37,-166.31 404.95,-151.42 383.09,-135.83 361.22,-120.25 343.25,-111.83 325.28,-103.42 314.91,-103.78 304.54,-104.13 301.82,-114.64 299.09,-125.14 302.10,-131.41 305.10,-137.68 305.90,-137.78 306.69,-137.88 307.49,-137.79 308.28,-137.69 309.03,-137.42 309.78,-137.14 310.44,-136.68 311.11,-136.23 311.64,-135.64 312.17,-135.04 312.55,-134.33 312.93,-133.63 313.12,-132.85 313.32,-132.07 313.32,-131.27 313.33,-130.47 313.14,-129.69 312.95,-128.92 312.59,-128.20 312.22,-127.49 311.69,-126.89 311.16,-126.29 310.51,-125.83 309.85,-125.37 309.10,-125.08 308.36,-124.79 305.36,-124.70 302.37,-124.62 295.05,-122.93 287.73,-121.24 270.28,-115.45 252.82,-109.65 227.14,-100.06 201.46,-90.47 172.75,-78.76 144.05,-67.05 116.89,-54.38 89.73,-41.70 67.60,-30.18 45.46,-18.66 31.55,-10.44 17.63,-2.22 10.53,1.94 3.42,6.12 2.64,6.44 1.86,6.76 1.02,6.88 0.19,7.01 -0.65,6.93 -1.49,6.85 -2.29,6.57 -3.09,6.29 -3.79,5.83 -4.50,5.37 -5.08,4.75 -5.66,4.14 -6.07,3.40 -6.48,2.66 -6.71,1.84 -6.93,1.03 -6.96,0.18 -6.98,-0.65 -6.80,-1.48 -6.62,-2.30 -6.25,-3.06 -5.87,-3.82 -5.33,-4.47 -4.79,-5.12 -4.10,-5.62 -3.42,-6.12 -3.42,-6.12 L -3.42,-6.12 Z"></path></g></svg>